<svg width="26" height="26" viewBox="0 0 26 26" fill="none" xmlns="http://www.w3.org/2000/svg">
<path d="M21.4 17.8V6.4C21.4 5.08 20.32 4 19 4H12.4" stroke="black" stroke-width="1.5" stroke-linecap="round" stroke-linejoin="round"/>
<path d="M15.4 1L11.8 4L15.4 7M4.59998 8.2V19.6C4.59998 20.92 5.67998 22 6.99998 22H13.6M21.4 25C22.3548 25 23.2704 24.6207 23.9456 23.9456C24.6207 23.2705 25 22.3548 25 21.4C25 20.4452 24.6207 19.5295 23.9456 18.8544C23.2704 18.1793 22.3548 17.8 21.4 17.8C20.4452 17.8 19.5295 18.1793 18.8544 18.8544C18.1793 19.5295 17.8 20.4452 17.8 21.4C17.8 22.3548 18.1793 23.2705 18.8544 23.9456C19.5295 24.6207 20.4452 25 21.4 25Z" stroke="black" stroke-width="1.5" stroke-linecap="round" stroke-linejoin="round"/>
<path d="M10.6 25L14.2 22L10.6 19M4.6 8.2C5.55478 8.2 6.47045 7.82072 7.14558 7.14558C7.82071 6.47045 8.2 5.55478 8.2 4.6C8.2 3.64522 7.82071 2.72955 7.14558 2.05442C6.47045 1.37928 5.55478 1 4.6 1C3.64522 1 2.72955 1.37928 2.05442 2.05442C1.37928 2.72955 1 3.64522 1 4.6C1 5.55478 1.37928 6.47045 2.05442 7.14558C2.72955 7.82072 3.64522 8.2 4.6 8.2Z" stroke="black" stroke-width="1.5" stroke-linecap="round" stroke-linejoin="round"/>
</svg>
